Coordinates
version=1
nRows=14
nColumns=24
inDegrees=yes

Units are S.I. units (second, meters, Newtons, ...)
Angles are in degrees.

endheader
time	pelvis_tilt	pelvis_list	pelvis_rotation	pelvis_tx	pelvis_ty	pelvis_tz	hip_flexion_r	hip_adduction_r	hip_rotation_r	knee_angle_r	ankle_angle_r	subtalar_angle_r	mtp_angle_r	hip_flexion_l	hip_adduction_l	hip_rotation_l	knee_angle_l	ankle_angle_l	subtalar_angle_l	mtp_angle_l	lumbar_extension	lumbar_bending	lumbar_rotation
      6.43000000	      8.57493645	      5.02438082	     14.18158910	      1.56431388	      0.79441976	     -0.22432819	     14.50398830	     -2.02999081	     -6.35264889	     -2.98634616	      6.13662649	      0.52782348	      0.00000000	    -34.17184400	      2.65728335	     11.69871626	      0.82773495	     16.58462352	      5.19584792	      0.00000000	    -29.73395748	      1.50608466	    -17.54705236
      6.44000000	      8.78710502	      4.34793268	     13.93271566	      1.57959127	      0.79373420	     -0.22473674	     14.82634233	     -1.13304579	     -6.52558314	     -5.32753837	      4.94461270	     -1.50196237	      0.00000000	    -34.66784820	      1.97896994	     10.55391549	     -0.35327061	     15.91671705	      6.00298519	      0.00000000	    -29.44231007	      2.24787128	    -16.95528347
      6.45000000	      9.00419908	      3.66749225	     13.56260032	      1.59501582	      0.79324505	     -0.22496921	     15.18217572	     -0.21102972	     -6.43160666	     -7.88692499	      3.57150096	     -3.43807643	      0.00000000	    -35.02443660	      1.36868100	      9.41573173	     -1.80813650	     15.02922895	      6.84289200	      0.00000000	    -29.15687662	      2.92986864	    -16.17492624
      6.46000000	      9.21224685	      2.97417590	     13.07393698	      1.61056620	      0.79296742	     -0.22518934	     15.55890192	      0.72785102	     -6.14740153	    -10.58015067	      2.34863792	     -4.84798878	      0.00000000	    -35.21069575	      0.84918091	      8.35882561	     -3.55590419	     13.78893354	      7.40952691	      0.00000000	    -28.83648708	      3.62729418	    -15.41824373
      6.47000000	      9.43784880	      2.34603237	     12.48745588	      1.62610555	      0.79292549	     -0.22529096	     15.89185114	      1.63160847	     -5.72647441	    -13.32126609	      1.51159099	     -5.75149270	      0.00000000	    -35.21178256	      0.45934831	      7.44426542	     -5.68234498	     12.29883053	      7.87940536	      0.00000000	    -28.57203468	      4.22129363	    -14.63479861
      6.48000000	      9.71211553	      1.76709018	     11.88273619	      1.64161210	      0.79320899	     -0.22550528	     16.08125956	      2.48764324	     -5.32587064	    -15.98638364	      1.28117719	     -5.95897832	      0.00000000	    -35.05280781	      0.15271289	      6.87630093	     -8.16589519	     10.44109330	      8.05777752	      0.00000000	    -28.37289087	      4.81396856	    -13.85950220
      6.49000000	     10.01565026	      1.36762664	     11.20965633	      1.65682463	      0.79377572	     -0.22554297	     16.11666953	      3.21944966	     -4.69309687	    -18.51607354	      1.56425354	     -5.93021490	      0.00000000	    -34.60930005	      0.06409930	      6.22322108	    -11.17349123	      8.41446977	      8.37371434	      0.00000000	    -28.32291422	      5.16194322	    -13.19048408
      6.50000000	     10.20815571	      1.01980639	     10.52752867	      1.67179185	      0.79442530	     -0.22556239	     16.12218322	      3.90345896	     -4.04031260	    -20.81123880	      2.32778950	     -5.71959684	      0.00000000	    -33.70809502	      0.06213706	      5.53313059	    -14.69113155	      6.37747875	      8.80050293	      0.00000000	    -28.19514361	      5.45066071	    -12.59179199
      6.51000000	     10.58487758	      0.78427853	      9.94876410	      1.68639900	      0.79553818	     -0.22565505	     15.70389473	      4.49662524	     -3.51287133	    -22.74705260	      3.55398904	     -5.34990514	      0.00000000	    -32.71585637	      0.06953239	      4.91771017	    -18.52327352	      4.10955415	      9.17342200	      0.00000000	    -28.34430874	      5.66737467	    -12.15126999
      6.52000000	     10.83970725	      0.56117392	      9.36878507	      1.70055496	      0.79667680	     -0.22571846	     15.23037692	      5.06838216	     -2.96697173	    -24.32966867	      5.01130403	     -4.96518530	      0.00000000	    -31.25097220	      0.09267977	      4.13105641	    -22.73336122	      1.99970603	      9.47215991	      0.00000000	    -28.43393935	      5.86187036	    -11.71831179
      6.53000000	     11.00946451	      0.35470212	      8.89976841	      1.71430268	      0.79791126	     -0.22574167	     14.62597576	      5.60651525	     -2.50683647	    -25.48478255	      6.57194868	     -4.73211055	      0.00000000	    -29.39494847	      0.02854564	      3.22649918	    -27.18043081	      0.06606540	      9.48838281	      0.00000000	    -28.46334894	      6.01748100	    -11.37805348
      6.54000000	     11.06082724	      0.18739779	      8.55642924	      1.72754167	      0.79919325	     -0.22570812	     13.95178493	      6.07396359	     -2.15287905	    -26.23021488	      8.09340756	     -4.69430481	      0.00000000	    -27.15956020	     -0.11479609	      2.30527055	    -31.75984097	     -1.49839580	      9.08447452	      0.00000000	    -28.41083565	      6.09773916	    -11.13149396
      6.55000000	     11.12704039	     -0.04364287	      8.35068334	      1.74038892	      0.80067681	     -0.22568877	     13.07406049	      6.58209837	     -1.90279504	    -26.56107490	      9.47099104	     -4.66690206	      0.00000000	    -24.77260498	     -0.45428752	      1.41537232	    -36.29539092	     -2.58027265	      8.19212874	      0.00000000	    -28.39653849	      6.27350177	    -10.98442943
      6.56000000	     11.19301924	     -0.28289663	      8.23498437	      1.75286575	      0.80230132	     -0.22566210	     12.04366160	      7.07376223	     -1.75056007	    -26.54522033	     10.70509786	     -4.68088029	      0.00000000	    -22.29945412	     -0.88496336	      0.61409539	    -40.65940526	     -3.02932006	      6.66573204	      0.00000000	    -28.40575805	      6.45481236	    -10.84041047
